<svg xmlns="http://www.w3.org/2000/svg" viewBox="0 0 141.73 96.38"><defs><style>.cls-1{fill:none;}.cls-2{fill:#ea0029;}.cls-3{fill:#1d1d1b;}.cls-4{fill:#fff;}</style></defs><title>Recurso 3</title><g id="Capa_2" data-name="Capa 2"><g id="Capa_1-2" data-name="Capa 1"><rect class="cls-1" width="141.73" height="96.38"/><path class="cls-2" d="M32.51,56.59a10.14,10.14,0,0,1,3.23,2.67c2.2,2.86,1.81,6.45,0,10.23C32.08,77.17,22.59,85.66,17,90.39c-.92.46-3.56,2.67-4.9,2.67C10.37,91.25,8.84,90,8.84,88.58c5.61-1.64,30-24.12,23.06-28-4.08,0-7.25,2.09-9.39,3.39-2.15,3.12-5.31,18.3-9.59,19.08a63.46,63.46,0,0,1,2.24-15c-.71,0-9.89,4.08-10.5,3.74,5.2-7.76,15.2-9.57,14.59-19.37,6.22-2.26,4.39,3.34,4.58,5.55,2.87,0,5.42-1.41,8.68-1.41"/><path class="cls-2" d="M55.25,54.38c-6.28,1-11.68,3.16-3.74,4.61a22.07,22.07,0,0,0,3.74-1.23A47.93,47.93,0,0,0,62.94,54a32.59,32.59,0,0,0-7.69.37"/><path class="cls-2" d="M137.07,42.33V42c-2.84.17-17,2.48-17.64,2.15,0-1.41.31-4.08-.41-4.93-.27.27-1.18.12-1.36.43A34.91,34.91,0,0,1,114.2,46c-2,2.14-8.09,2.1-9.85,2.82-.57.24-.38,1.57,0,2.09s1.45.68,4,1.74c-.6,3.73-6.94,14.84-17,14.84-.5-2.31,4.7-11.27,7.15-10.59v2.61c3.67-.68,3.26-5.62,0-5.62-11.89,2.21-9.27,13.46-18.15,17.42A16.29,16.29,0,0,1,75,72.56c-2.86-1.59,1.57-4.24,5.22-7,3.22-2.47,5.83-5.07,2.13-7.11a8.06,8.06,0,0,0-2.13,0c-7.84,1-7.47,14.25-16.22,14.25,0-.19,5.41-11.39-.21-8.28l-3-.16c-.21-.58-.42-1.08-.61-1.59-2.11.21-3.58,1.87-4.93,4-2.19,3.51-4.09,8.33-7.93,10.46-2.76-3.13,5.71-8.45,1-12.41C46.49,66.83,44.76,69,43,71.13c-.72.54-5,3.09-7.28,4.9-1,.75-1.59,1.37-1.49,1.69.48-.15,1-.33,1.49-.52a56.82,56.82,0,0,1,5.44-1.81c1.13,2.65-5.2,5.1,1,8.55a8.18,8.18,0,0,1,1.21.06c5.37-3.32,7.48-9.19,11.82-13.58A18.9,18.9,0,0,1,58.12,68c7.55.8-7.65,8.11,1.84,11.85,1.94-.75,7.34-6,8.67-7.19a5.06,5.06,0,0,1,.72,0c.61.86,2.63,2.21,4.16,3.35,1.85-.32,4.27-2,6.75-3.68a33.6,33.6,0,0,1,5.59-3.29,6.42,6.42,0,0,1,3.89,2.09c2.13.4,9.49-4.58,10.91-5.42,1.95,0,2.66,3.11,6.13,2.49a85.22,85.22,0,0,0,14.07-10.43.51.51,0,0,0-.3-.06c-.91.79-11,4.14-11.43,4.2C111.06,46.87,121,49.5,137.07,42.33ZM80.26,61a2.82,2.82,0,0,1,1.93-.78c1,1.12-.14,3-1.93,4.32A7.76,7.76,0,0,1,78,65.65,8.21,8.21,0,0,1,80.26,61Z"/><rect class="cls-3" x="39.97" y="3.32" width="58.85" height="35.9"/><path class="cls-4" d="M46.84,28.5c.16,0,.32-.15.46,0l.07.13,0,1.77a.12.12,0,0,1-.17,0,3.24,3.24,0,0,0-.87-1.34,1.33,1.33,0,0,0-1.22-.31,1,1,0,0,0-.7.62,1.13,1.13,0,0,0,.43,1.27c.93.67,2.46.83,2.74,2.22a2.66,2.66,0,0,1-.87,2.75c-.89.67-2.18.36-3.2.16a.89.89,0,0,1-.42.07L43,35.73l-.05-1.65c0-.09,0-.26.14-.28h.07a2.37,2.37,0,0,0,1.48,1.67,1.21,1.21,0,0,0,1.2-.14,1.11,1.11,0,0,0,.42-.88c-.07-1.06-1.2-1.27-1.9-1.71a2.23,2.23,0,0,1-1.36-2,2.25,2.25,0,0,1,1-2.1,3.78,3.78,0,0,1,2.9-.13m12.24.15c-1.5-.54-3.57-.5-4.53,1.08a5.08,5.08,0,0,0-.19,4.86,3.25,3.25,0,0,0,2.91,1.6,2.39,2.39,0,0,0,2.15-1.3,1.56,1.56,0,0,0,.25-.78.17.17,0,0,0-.19,0,2.62,2.62,0,0,1-.94,1,1.82,1.82,0,0,1-2.07-.37c-1-1.24-1-3.22-.52-4.73a1.74,1.74,0,0,1,1.35-1.15,1.78,1.78,0,0,1,1.71.91c.19.34.29.7.45,1,0,.07.12,0,.17,0v-.61l0-1.47c-.12-.2-.32,0-.52-.05m36.32-.09c-.41.24-.8-.12-1.2-.06a2.94,2.94,0,0,0-2,.25,2.33,2.33,0,0,0-1,2.08,2,2,0,0,0,1.16,2c.72.46,1.78.58,2.09,1.53a1.27,1.27,0,0,1-.5,1.27,1.25,1.25,0,0,1-.89.09A2.48,2.48,0,0,1,91.35,34l-.11,0c-.13,0-.1.17-.13.26l0,1.67.08.18c.13.07.35-.08.51-.08a4.91,4.91,0,0,0,2.52.12,2.27,2.27,0,0,0,1.55-1.69,2.55,2.55,0,0,0-.56-2.35c-.85-.74-2.12-.74-2.66-1.82a1.11,1.11,0,0,1,.18-1,.86.86,0,0,1,.64-.36,1.49,1.49,0,0,1,1.33.55,6,6,0,0,1,.65,1.19.23.23,0,0,0,.18-.07V28.78a.2.2,0,0,0-.18-.22m-47-.14c-.07,0-.09.1-.09.17.21.19.57.4.57.76v4.07l0,1.47a1.08,1.08,0,0,1-.28.72c-.07.15-.26.1-.24.29s0,.07.1.1l4.63,0,.23-.15a10.19,10.19,0,0,0,.15-1.58s-.05,0-.09-.07c-.29.22-.4.6-.68.87a1.88,1.88,0,0,1-1.77.28.57.57,0,0,1-.28-.51V32.65l.09-.14c.54,0,1.27-.19,1.69.26.17.09.22.55.48.34V31.24l0-.07c-.24,0-.24.29-.38.41-.43.47-1.15.25-1.72.28l-.11-.12V29.59c0-.21,0-.43.11-.58h1.16a1.75,1.75,0,0,1,1.26.94s.12.07.17,0c0-.4,0-.84-.07-1.27,0-.12-.14-.18-.23-.24m8,.08-.67,0c-.12,0-.24,0-.24.15s.17.08.21.13c.55.28.41,1,.43,1.45l0,3.54a2.26,2.26,0,0,0,.89,2,2.69,2.69,0,0,0,2.84,0c.24-.12.38-.43.64-.45.09.21-.07.57.18.71h2c.07,0,.09-.07.07-.17-.19-.12-.47-.31-.51-.54V29.64c-.07-.46.2-.7.53-.91,0-.08,0-.14-.07-.17l-2.68,0c0,.05-.09.09-.07.16.21.17.49.27.56.58l0,2.94v1.6c0,.29,0,.63-.22.84a1.65,1.65,0,0,1-1.74.72,1.35,1.35,0,0,1-.77-1.3V29.73a1.43,1.43,0,0,1,.22-.72c.09-.21.63-.16.34-.47m12.78,0c-.17,0-.41-.06-.43.15a.35.35,0,0,0,.26.15.75.75,0,0,1,.4.53l0,1.48,0,4.28-.08.34a1,1,0,0,1-.56.52s0,.12,0,.17h2.94a.11.11,0,0,0,.09-.17c-.23-.17-.58-.34-.62-.69V29.87l.06-.63c0-.3.38-.44.62-.59,0,0,0-.13-.1-.15m4.63.06-3.67,0c-.09,0-.14.11-.21.18A6.51,6.51,0,0,0,79,30l.07.09c.21-.07.24-.36.43-.49a1.65,1.65,0,0,1,1.35-.39c.12,0,.17.12.19.22v5.35c-.07.33,0,.72-.25,1-.09.12-.33.14-.33.34s0,0,.07.07l2.68,0s.12,0,.1-.14a.23.23,0,0,0-.15-.12.66.66,0,0,1-.42-.6v-4l0-1.89c.12-.34.5-.14.76-.19a1.35,1.35,0,0,1,1.1.83c0,.08.14.15.21.08,0-.41,0-.83,0-1.27,0-.1-.07-.19-.18-.24M74.89,36c0,.1-.07.17-.16.2l-1.77,0a1.26,1.26,0,0,1-.44-.79c-.39-.86-.73-1.74-1.11-2.61-.14-.18-.45-.16-.63-.14l-.12.14V35.4c.1.26.37.4.56.57,0,.1,0,.17-.14.15H69a2.57,2.57,0,0,1-.75-.1c0-.34.52-.29.56-.64l.07-.37V32.3l0-2.83a.88.88,0,0,0-.59-.72c-.07-.05,0-.12,0-.16s.07-.05.12-.07l3.88,0a2,2,0,0,1,1.74,1.19,2.09,2.09,0,0,1-.39,2.11,6.29,6.29,0,0,0-.63.5c.06.17.25.31.31.48l.73,1.63c.26.5.31,1.12.78,1.5m-2.76-6.33a1,1,0,0,0-.58-.46c-.28,0-.66-.14-.84.1v2.6c.12.2.39.12.61.12a1.05,1.05,0,0,0,.86-.62,1.85,1.85,0,0,0-.05-1.74m18.79,6.23a.15.15,0,0,1-.11.2H88.22a.15.15,0,0,1,0-.2.64.64,0,0,0,.31-.28c.14-.55-.24-.93-.33-1.43-.1-.19-.07-.51-.36-.55H86c-.35.31-.38.81-.54,1.21a1.38,1.38,0,0,0,0,.7c.13.26.47.19.47.48l-.14.09H84.13c-.19-.31.29-.33.43-.54a5.15,5.15,0,0,0,.63-1.37l.45-1.46A9.74,9.74,0,0,0,86,31.53l.62-1.85c.07-.33.21-.67.28-1,.28-.31.68-.09,1-.12.1.05.17.09.19.22l.4,1.09,1.67,4.77a2.42,2.42,0,0,0,.7,1.23m-3.21-3a8.81,8.81,0,0,0-.48-1.48l-.23-.7c0-.09-.12-.09-.19,0l-.59,1.8a.48.48,0,0,0,0,.45,9.48,9.48,0,0,0,1.41,0Z"/><path class="cls-2" d="M78.22,15.45a8.83,8.83,0,1,1-8.83-9,8.9,8.9,0,0,1,8.83,9"/><path class="cls-2" d="M59.09,15.45a8.83,8.83,0,1,1-8.82-9,8.9,8.9,0,0,1,8.82,9"/><path class="cls-2" d="M97.35,15.45a8.83,8.83,0,1,1-8.83-9,8.9,8.9,0,0,1,8.83,9"/></g></g></svg>